<mxfile host="Electron" agent="Mozilla/5.0 (Windows NT 10.0; Win64; x64) AppleWebKit/537.36 (KHTML, like Gecko) draw.io/27.0.5 Chrome/134.0.6998.205 Electron/35.3.0 Safari/537.36" version="27.0.5" pages="2">
  <diagram name="Page-1" id="WEJynbe_rD5mDJt4prt2">
    <mxGraphModel dx="1100" dy="1195" grid="1" gridSize="10" guides="1" tooltips="1" connect="1" arrows="1" fold="1" page="1" pageScale="1" pageWidth="827" pageHeight="1169" math="0" shadow="0">
      <root>
        <mxCell id="0" />
        <mxCell id="1" parent="0" />
        <mxCell id="VbtTNtI9yQnvsvTbab40-3" value="" style="edgeStyle=orthogonalEdgeStyle;rounded=0;orthogonalLoop=1;jettySize=auto;html=1;" parent="1" source="VbtTNtI9yQnvsvTbab40-1" target="VbtTNtI9yQnvsvTbab40-2" edge="1">
          <mxGeometry relative="1" as="geometry" />
        </mxCell>
        <mxCell id="VbtTNtI9yQnvsvTbab40-1" value="Get next item" style="rounded=0;whiteSpace=wrap;html=1;fillColor=#dae8fc;strokeColor=#6c8ebf;" parent="1" vertex="1">
          <mxGeometry x="340" y="370" width="120" height="60" as="geometry" />
        </mxCell>
        <mxCell id="VbtTNtI9yQnvsvTbab40-5" value="yes" style="edgeStyle=orthogonalEdgeStyle;rounded=0;orthogonalLoop=1;jettySize=auto;html=1;" parent="1" source="VbtTNtI9yQnvsvTbab40-2" target="VbtTNtI9yQnvsvTbab40-4" edge="1">
          <mxGeometry relative="1" as="geometry" />
        </mxCell>
        <mxCell id="VbtTNtI9yQnvsvTbab40-6" value="no" style="edgeStyle=orthogonalEdgeStyle;rounded=0;orthogonalLoop=1;jettySize=auto;html=1;entryX=0;entryY=0.5;entryDx=0;entryDy=0;exitX=0;exitY=0.5;exitDx=0;exitDy=0;" parent="1" source="VbtTNtI9yQnvsvTbab40-2" target="VbtTNtI9yQnvsvTbab40-8" edge="1">
          <mxGeometry relative="1" as="geometry">
            <Array as="points">
              <mxPoint x="280" y="490" />
              <mxPoint x="280" y="290" />
            </Array>
          </mxGeometry>
        </mxCell>
        <mxCell id="VbtTNtI9yQnvsvTbab40-2" value="Parent attrbute a number and not empty?" style="rounded=0;whiteSpace=wrap;html=1;fillColor=#bac8d3;strokeColor=#23445d;" parent="1" vertex="1">
          <mxGeometry x="340" y="460" width="120" height="60" as="geometry" />
        </mxCell>
        <mxCell id="VbtTNtI9yQnvsvTbab40-7" value="no" style="edgeStyle=orthogonalEdgeStyle;rounded=0;orthogonalLoop=1;jettySize=auto;html=1;entryX=0;entryY=0.5;entryDx=0;entryDy=0;exitX=0;exitY=0.5;exitDx=0;exitDy=0;" parent="1" source="VbtTNtI9yQnvsvTbab40-4" target="VbtTNtI9yQnvsvTbab40-8" edge="1">
          <mxGeometry relative="1" as="geometry">
            <mxPoint x="320" y="350" as="targetPoint" />
            <mxPoint x="320" y="600" as="sourcePoint" />
            <Array as="points">
              <mxPoint x="260" y="600" />
              <mxPoint x="260" y="290" />
            </Array>
          </mxGeometry>
        </mxCell>
        <mxCell id="VbtTNtI9yQnvsvTbab40-13" value="yes" style="edgeStyle=orthogonalEdgeStyle;rounded=0;orthogonalLoop=1;jettySize=auto;html=1;" parent="1" source="VbtTNtI9yQnvsvTbab40-4" target="VbtTNtI9yQnvsvTbab40-12" edge="1">
          <mxGeometry relative="1" as="geometry" />
        </mxCell>
        <mxCell id="VbtTNtI9yQnvsvTbab40-4" value="Parent attribute resolves as key in&lt;div&gt;arrows hashmap?&lt;/div&gt;" style="rounded=0;whiteSpace=wrap;html=1;fillColor=#bac8d3;strokeColor=#23445d;" parent="1" vertex="1">
          <mxGeometry x="335" y="560" width="130" height="60" as="geometry" />
        </mxCell>
        <mxCell id="VbtTNtI9yQnvsvTbab40-9" value="yes" style="edgeStyle=orthogonalEdgeStyle;rounded=0;orthogonalLoop=1;jettySize=auto;html=1;" parent="1" source="VbtTNtI9yQnvsvTbab40-8" target="VbtTNtI9yQnvsvTbab40-1" edge="1">
          <mxGeometry relative="1" as="geometry" />
        </mxCell>
        <mxCell id="VbtTNtI9yQnvsvTbab40-11" value="No" style="edgeStyle=orthogonalEdgeStyle;rounded=0;orthogonalLoop=1;jettySize=auto;html=1;entryX=0.5;entryY=0;entryDx=0;entryDy=0;" parent="1" source="VbtTNtI9yQnvsvTbab40-8" target="VbtTNtI9yQnvsvTbab40-10" edge="1">
          <mxGeometry relative="1" as="geometry">
            <Array as="points">
              <mxPoint x="580" y="290" />
            </Array>
          </mxGeometry>
        </mxCell>
        <mxCell id="VbtTNtI9yQnvsvTbab40-8" value="DrawioCell map&lt;div&gt;Iteraror has next?&lt;/div&gt;" style="rounded=0;whiteSpace=wrap;html=1;fillColor=#f8cecc;strokeColor=#b85450;" parent="1" vertex="1">
          <mxGeometry x="340" y="260" width="120" height="60" as="geometry" />
        </mxCell>
        <mxCell id="VbtTNtI9yQnvsvTbab40-10" value="END" style="whiteSpace=wrap;html=1;rounded=0;fillColor=#f5f5f5;fontColor=#333333;strokeColor=#666666;" parent="1" vertex="1">
          <mxGeometry x="520" y="830" width="120" height="60" as="geometry" />
        </mxCell>
        <mxCell id="VbtTNtI9yQnvsvTbab40-18" value="" style="edgeStyle=orthogonalEdgeStyle;rounded=0;orthogonalLoop=1;jettySize=auto;html=1;" parent="1" source="VbtTNtI9yQnvsvTbab40-12" target="VbtTNtI9yQnvsvTbab40-17" edge="1">
          <mxGeometry relative="1" as="geometry" />
        </mxCell>
        <mxCell id="VbtTNtI9yQnvsvTbab40-12" value="Add the found arrow to the source with the value attribute as key" style="rounded=0;whiteSpace=wrap;html=1;fillColor=#dae8fc;strokeColor=#6c8ebf;" parent="1" vertex="1">
          <mxGeometry x="340" y="664.5" width="120" height="60" as="geometry" />
        </mxCell>
        <mxCell id="VbtTNtI9yQnvsvTbab40-16" value="no" style="edgeStyle=orthogonalEdgeStyle;rounded=0;orthogonalLoop=1;jettySize=auto;html=1;entryX=0;entryY=0.5;entryDx=0;entryDy=0;exitX=0;exitY=0.5;exitDx=0;exitDy=0;" parent="1" source="VbtTNtI9yQnvsvTbab40-19" target="VbtTNtI9yQnvsvTbab40-8" edge="1">
          <mxGeometry relative="1" as="geometry">
            <Array as="points">
              <mxPoint x="240" y="860" />
              <mxPoint x="240" y="290" />
            </Array>
          </mxGeometry>
        </mxCell>
        <mxCell id="VbtTNtI9yQnvsvTbab40-20" value="" style="edgeStyle=orthogonalEdgeStyle;rounded=0;orthogonalLoop=1;jettySize=auto;html=1;" parent="1" source="VbtTNtI9yQnvsvTbab40-17" target="VbtTNtI9yQnvsvTbab40-19" edge="1">
          <mxGeometry relative="1" as="geometry" />
        </mxCell>
        <mxCell id="VbtTNtI9yQnvsvTbab40-17" value="Remove arrow from hasmap,&amp;nbsp;" style="rounded=0;whiteSpace=wrap;html=1;fillColor=#dae8fc;strokeColor=#6c8ebf;" parent="1" vertex="1">
          <mxGeometry x="340" y="750" width="120" height="60" as="geometry" />
        </mxCell>
        <mxCell id="VbtTNtI9yQnvsvTbab40-21" value="yes" style="edgeStyle=orthogonalEdgeStyle;rounded=0;orthogonalLoop=1;jettySize=auto;html=1;" parent="1" source="VbtTNtI9yQnvsvTbab40-19" target="VbtTNtI9yQnvsvTbab40-10" edge="1">
          <mxGeometry relative="1" as="geometry" />
        </mxCell>
        <mxCell id="VbtTNtI9yQnvsvTbab40-19" value="Arrow map empty?" style="rounded=0;whiteSpace=wrap;html=1;fillColor=#bac8d3;strokeColor=#23445d;" parent="1" vertex="1">
          <mxGeometry x="340" y="830" width="120" height="60" as="geometry" />
        </mxCell>
      </root>
    </mxGraphModel>
  </diagram>
  <diagram id="AgNv4HZAG_tDqqqb4DTT" name="Page-2">
    <mxGraphModel dx="1092" dy="1195" grid="1" gridSize="10" guides="1" tooltips="1" connect="1" arrows="1" fold="1" page="1" pageScale="1" pageWidth="827" pageHeight="1169" math="0" shadow="0">
      <root>
        <mxCell id="0" />
        <mxCell id="1" parent="0" />
        <object label="&lt;div&gt;&lt;b&gt;Condition&lt;/b&gt;&lt;/div&gt;&lt;div&gt;&lt;font style=&quot;font-size: 10px;&quot;&gt;%expression%&lt;/font&gt;&lt;/div&gt;" dcafstype="conditionblock" placeholders="1" expression="??" id="kvsq0qEsWGm8CotlTuQG-1">
          <mxCell style="rounded=0;whiteSpace=wrap;html=1;fillColor=#bac8d3;strokeColor=#23445d;" vertex="1" parent="1">
            <mxGeometry x="120" y="480" width="120" height="60" as="geometry" />
          </mxCell>
        </object>
        <mxCell id="kvsq0qEsWGm8CotlTuQG-2" value="" style="endArrow=classic;html=1;rounded=0;exitX=1;exitY=0.5;exitDx=0;exitDy=0;fillColor=#bac8d3;strokeColor=#23445d;entryX=0;entryY=0.5;entryDx=0;entryDy=0;" edge="1" source="kvsq0qEsWGm8CotlTuQG-1" parent="1" target="DXo02aUTl5ZZXf5Vl93a-3">
          <mxGeometry width="50" height="50" relative="1" as="geometry">
            <mxPoint x="260" y="510" as="sourcePoint" />
            <mxPoint x="290" y="510" as="targetPoint" />
          </mxGeometry>
        </mxCell>
        <mxCell id="kvsq0qEsWGm8CotlTuQG-3" value="true" style="edgeLabel;html=1;align=center;verticalAlign=middle;resizable=0;points=[];" vertex="1" connectable="0" parent="kvsq0qEsWGm8CotlTuQG-2">
          <mxGeometry x="-0.0118" y="-1" relative="1" as="geometry">
            <mxPoint y="-1" as="offset" />
          </mxGeometry>
        </mxCell>
        <mxCell id="kvsq0qEsWGm8CotlTuQG-4" value="" style="endArrow=classic;html=1;rounded=0;exitX=0.5;exitY=1;exitDx=0;exitDy=0;fillColor=#bac8d3;strokeColor=#23445d;" edge="1" source="kvsq0qEsWGm8CotlTuQG-1" parent="1">
          <mxGeometry width="50" height="50" relative="1" as="geometry">
            <mxPoint x="240" y="600" as="sourcePoint" />
            <mxPoint x="180" y="600" as="targetPoint" />
            <Array as="points">
              <mxPoint x="180" y="600" />
            </Array>
          </mxGeometry>
        </mxCell>
        <mxCell id="kvsq0qEsWGm8CotlTuQG-5" value="fail" style="edgeLabel;html=1;align=center;verticalAlign=middle;resizable=0;points=[];" vertex="1" connectable="0" parent="kvsq0qEsWGm8CotlTuQG-4">
          <mxGeometry x="-0.0118" y="-1" relative="1" as="geometry">
            <mxPoint y="-1" as="offset" />
          </mxGeometry>
        </mxCell>
        <object label="&lt;div&gt;&lt;b&gt;Condition&lt;/b&gt;&lt;/div&gt;&lt;div&gt;&lt;font style=&quot;font-size: 10px;&quot;&gt;%expression%&lt;/font&gt;&lt;/div&gt;" dcafstype="conditionblock" placeholders="1" expression="??" id="kvsq0qEsWGm8CotlTuQG-6">
          <mxCell style="rounded=0;whiteSpace=wrap;html=1;fillColor=#bac8d3;strokeColor=#23445d;" vertex="1" parent="1">
            <mxGeometry x="610" y="480" width="120" height="60" as="geometry" />
          </mxCell>
        </object>
        <mxCell id="DXo02aUTl5ZZXf5Vl93a-2" value="next" style="edgeStyle=orthogonalEdgeStyle;rounded=0;orthogonalLoop=1;jettySize=auto;html=1;" edge="1" parent="1" target="kvsq0qEsWGm8CotlTuQG-6">
          <mxGeometry relative="1" as="geometry">
            <mxPoint x="560" y="510" as="sourcePoint" />
          </mxGeometry>
        </mxCell>
        <object dcafstype="realval" def="0" group="water" label="&lt;b&gt;Update Real&lt;/b&gt;&lt;div&gt;%group%_%name%[%unit%]&lt;/div&gt;" name="pressure" placeholders="1" unit="bar" id="DXo02aUTl5ZZXf5Vl93a-1">
          <mxCell style="rounded=1;whiteSpace=wrap;html=1;" vertex="1" parent="1">
            <mxGeometry x="430" y="480" width="120" height="60" as="geometry" />
          </mxCell>
        </object>
        <mxCell id="DXo02aUTl5ZZXf5Vl93a-4" value="" style="edgeStyle=orthogonalEdgeStyle;rounded=0;orthogonalLoop=1;jettySize=auto;html=1;" edge="1" parent="1" source="DXo02aUTl5ZZXf5Vl93a-3" target="DXo02aUTl5ZZXf5Vl93a-1">
          <mxGeometry relative="1" as="geometry" />
        </mxCell>
        <object dcafstype="mathblock" expression="??" label="&lt;b&gt;Math:expr&lt;/b&gt;&lt;div&gt;%expression%&lt;br&gt;&lt;/div&gt;" placeholders="1" scale="2" id="DXo02aUTl5ZZXf5Vl93a-3">
          <mxCell style="rounded=0;whiteSpace=wrap;html=1;" vertex="1" parent="1">
            <mxGeometry x="310" y="480" width="85" height="60" as="geometry" />
          </mxCell>
        </object>
        <mxCell id="DXo02aUTl5ZZXf5Vl93a-7" value="fail" style="endArrow=classic;html=1;rounded=0;exitX=0.5;exitY=1;exitDx=0;exitDy=0;" edge="1" parent="1" source="kvsq0qEsWGm8CotlTuQG-6">
          <mxGeometry width="50" height="50" relative="1" as="geometry">
            <mxPoint x="390" y="630" as="sourcePoint" />
            <mxPoint x="670" y="600" as="targetPoint" />
          </mxGeometry>
        </mxCell>
        <mxCell id="DXo02aUTl5ZZXf5Vl93a-23" value="igrnore result" style="edgeStyle=orthogonalEdgeStyle;rounded=0;orthogonalLoop=1;jettySize=auto;html=1;entryX=0.25;entryY=0;entryDx=0;entryDy=0;exitX=0.5;exitY=0;exitDx=0;exitDy=0;dashed=1;" edge="1" parent="1" source="DXo02aUTl5ZZXf5Vl93a-8" target="DXo02aUTl5ZZXf5Vl93a-17">
          <mxGeometry relative="1" as="geometry">
            <mxPoint x="169" y="650" as="targetPoint" />
          </mxGeometry>
        </mxCell>
        <object label="&lt;div&gt;&lt;b&gt;Condition&lt;/b&gt;&lt;/div&gt;&lt;div&gt;&lt;font style=&quot;font-size: 10px;&quot;&gt;%expression%&lt;/font&gt;&lt;/div&gt;" dcafstype="conditionblock" placeholders="1" expression="??" id="DXo02aUTl5ZZXf5Vl93a-8">
          <mxCell style="rounded=0;whiteSpace=wrap;html=1;fillColor=#bac8d3;strokeColor=#23445d;" vertex="1" parent="1">
            <mxGeometry x="109" y="700" width="120" height="60" as="geometry" />
          </mxCell>
        </object>
        <mxCell id="DXo02aUTl5ZZXf5Vl93a-9" value="" style="endArrow=classic;html=1;rounded=0;exitX=1;exitY=0.5;exitDx=0;exitDy=0;fillColor=#bac8d3;strokeColor=#23445d;entryX=0;entryY=0.5;entryDx=0;entryDy=0;" edge="1" parent="1" source="DXo02aUTl5ZZXf5Vl93a-8" target="DXo02aUTl5ZZXf5Vl93a-17">
          <mxGeometry width="50" height="50" relative="1" as="geometry">
            <mxPoint x="249" y="730" as="sourcePoint" />
            <mxPoint x="279" y="730" as="targetPoint" />
          </mxGeometry>
        </mxCell>
        <mxCell id="DXo02aUTl5ZZXf5Vl93a-10" value="true" style="edgeLabel;html=1;align=center;verticalAlign=middle;resizable=0;points=[];" vertex="1" connectable="0" parent="DXo02aUTl5ZZXf5Vl93a-9">
          <mxGeometry x="-0.0118" y="-1" relative="1" as="geometry">
            <mxPoint y="-1" as="offset" />
          </mxGeometry>
        </mxCell>
        <mxCell id="DXo02aUTl5ZZXf5Vl93a-11" value="" style="endArrow=classic;html=1;rounded=0;exitX=0.5;exitY=1;exitDx=0;exitDy=0;fillColor=#bac8d3;strokeColor=#23445d;" edge="1" parent="1" source="DXo02aUTl5ZZXf5Vl93a-8">
          <mxGeometry width="50" height="50" relative="1" as="geometry">
            <mxPoint x="229" y="820" as="sourcePoint" />
            <mxPoint x="169" y="820" as="targetPoint" />
            <Array as="points">
              <mxPoint x="169" y="820" />
            </Array>
          </mxGeometry>
        </mxCell>
        <mxCell id="DXo02aUTl5ZZXf5Vl93a-12" value="fail" style="edgeLabel;html=1;align=center;verticalAlign=middle;resizable=0;points=[];" vertex="1" connectable="0" parent="DXo02aUTl5ZZXf5Vl93a-11">
          <mxGeometry x="-0.0118" y="-1" relative="1" as="geometry">
            <mxPoint y="-1" as="offset" />
          </mxGeometry>
        </mxCell>
        <mxCell id="DXo02aUTl5ZZXf5Vl93a-20" value="true" style="edgeStyle=orthogonalEdgeStyle;rounded=0;orthogonalLoop=1;jettySize=auto;html=1;" edge="1" parent="1" source="DXo02aUTl5ZZXf5Vl93a-13" target="DXo02aUTl5ZZXf5Vl93a-15">
          <mxGeometry relative="1" as="geometry" />
        </mxCell>
        <mxCell id="DXo02aUTl5ZZXf5Vl93a-21" value="ignore result" style="edgeStyle=orthogonalEdgeStyle;rounded=0;orthogonalLoop=1;jettySize=auto;html=1;entryX=0.25;entryY=0;entryDx=0;entryDy=0;exitX=0.5;exitY=0;exitDx=0;exitDy=0;dashed=1;" edge="1" parent="1" source="DXo02aUTl5ZZXf5Vl93a-13" target="DXo02aUTl5ZZXf5Vl93a-15">
          <mxGeometry relative="1" as="geometry" />
        </mxCell>
        <object label="&lt;div&gt;&lt;b&gt;Condition&lt;/b&gt;&lt;/div&gt;&lt;div&gt;&lt;font style=&quot;font-size: 10px;&quot;&gt;%expression%&lt;/font&gt;&lt;/div&gt;" dcafstype="conditionblock" placeholders="1" expression="??" id="DXo02aUTl5ZZXf5Vl93a-13">
          <mxCell style="rounded=0;whiteSpace=wrap;html=1;fillColor=#bac8d3;strokeColor=#23445d;" vertex="1" parent="1">
            <mxGeometry x="430" y="700" width="120" height="60" as="geometry" />
          </mxCell>
        </object>
        <object dcafstype="realval" def="0" group="water" label="&lt;b&gt;Update Real&lt;/b&gt;&lt;div&gt;%group%_%name%[%unit%]&lt;/div&gt;" name="pressure" placeholders="1" unit="bar" id="DXo02aUTl5ZZXf5Vl93a-15">
          <mxCell style="rounded=1;whiteSpace=wrap;html=1;" vertex="1" parent="1">
            <mxGeometry x="600" y="700" width="120" height="60" as="geometry" />
          </mxCell>
        </object>
        <mxCell id="DXo02aUTl5ZZXf5Vl93a-16" value="next" style="edgeStyle=orthogonalEdgeStyle;rounded=0;orthogonalLoop=1;jettySize=auto;html=1;" edge="1" parent="1" source="DXo02aUTl5ZZXf5Vl93a-17">
          <mxGeometry relative="1" as="geometry">
            <mxPoint x="430" y="730" as="targetPoint" />
          </mxGeometry>
        </mxCell>
        <object dcafstype="mathblock" expression="??" label="&lt;b&gt;Math:expr&lt;/b&gt;&lt;div&gt;%expression%&lt;br&gt;&lt;/div&gt;" placeholders="1" scale="2" id="DXo02aUTl5ZZXf5Vl93a-17">
          <mxCell style="rounded=0;whiteSpace=wrap;html=1;" vertex="1" parent="1">
            <mxGeometry x="299" y="700" width="85" height="60" as="geometry" />
          </mxCell>
        </object>
        <mxCell id="DXo02aUTl5ZZXf5Vl93a-18" value="fail" style="endArrow=classic;html=1;rounded=0;exitX=0.5;exitY=1;exitDx=0;exitDy=0;" edge="1" parent="1" source="DXo02aUTl5ZZXf5Vl93a-13">
          <mxGeometry width="50" height="50" relative="1" as="geometry">
            <mxPoint x="379" y="850" as="sourcePoint" />
            <mxPoint x="490" y="820" as="targetPoint" />
          </mxGeometry>
        </mxCell>
      </root>
    </mxGraphModel>
  </diagram>
</mxfile>
